<svg xmlns="http://www.w3.org/2000/svg" version="1.1" xmlns:xlink="http://www.w3.org/1999/xlink" xmlns:svgjs="http://svgjs.dev/svgjs" viewBox="0 0 6.875754253355957 6.8021204451331805"><g transform="matrix(1,0,0,1,2.200254641697508,2.2035880008658264)"><g><path d=" M -1.6094561558676865 0.8883094071998203 L -1.5897370977090244 0.7876842707590969 L -1.0031741404260104 0.6966370183252447 L -1.0026107387643344 0.6937620144269383 Q -1.0220591322505483 0.6914435052982513 -1.0460078321381139 0.6892382283098186 Q -1.0699565320256794 0.6870329513213862 -1.1002800904074883 0.6830808532777983 Q -1.1306036487892972 0.6791287552342102 -1.1687395676145025 0.6731481353046288 Q -1.2068754864397078 0.6671675153750471 -1.2543130507617632 0.6578713879573923 L -1.552834288869243 0.5993715154200285 L -1.5310494246177688 0.48820469801884836 L -0.7126316482332179 0.6485863710426321 L -0.7325385069457718 0.7501698421161243 L -1.304538644183362 0.8430757682255878 L -1.3052898463989302 0.8469091067566631 Q -1.2834456163307941 0.8496971172700802 -1.2578198308358832 0.8522310452278238 Q -1.2321940453409723 0.8547649731855673 -1.197797564769896 0.8595152235831963 Q -1.1634010841988198 0.8642654739808254 -1.1178380719696563 0.8717015482030701 Q -1.0722750597404926 0.8791376224253147 -1.009983308610521 0.8913446584282959 L -0.7694413157855534 0.9384825974551925 L -0.7910383794831355 1.048691080223604 L -1.6094561558676865 0.8883094071998203 Z M -1.4189754693179086 0.17382952483672653 L -1.369357468311688 0.05750493293605141 L -0.6022439433450735 0.38471553416626214 L -0.651861944351294 0.5010401260669373 L -1.4189754693179086 0.17382952483672653 Z M -1.222944728607608 -0.23540338108060122 L -1.1500550757666703 -0.33994241941415915 L -0.6485881179367294 0.009704497661910727 Q -0.6165455008229952 0.0320461537051101 -0.5930831013808264 0.04364323912235624 Q -0.5696207019386575 0.0552403245396024 -0.5521166841906748 0.05702802911298277 Q -0.5346126664426921 0.05881573368636317 -0.5215255305398997 0.051571238510806916 Q -0.5084383946371073 0.04432674333525066 -0.49782610801658755 0.029106500206226904 Q -0.48721382139606784 0.013886257077203146 -0.48466179806862075 -0.0012990797268545573 Q -0.4821097747411736 -0.01648441653091226 -0.4895600472697166 -0.03269129880547306 Q -0.4970103197982596 -0.04889818108003385 -0.5155854819809786 -0.06750458899090933 Q -0.5341606441636977 -0.08611099690178486 -0.5662032612774319 -0.10845265294498424 L -1.0676702191073726 -0.45809957002105417 L -0.9956183783680547 -0.561437010212847 L -0.5217881777987097 -0.23105977147403656 Q -0.4717215885585 -0.1961509339065376 -0.4416595910302705 -0.16328518728004476 Q -0.41159759350204095 -0.13041944065355193 -0.39678156378456003 -0.10044561906173699 Q -0.3819655340670791 -0.0704717974699221 -0.37981589385277004 -0.043674682609351145 Q -0.37766625363846096 -0.016877567748780076 -0.38296321530547955 0.006513178694646127 Q -0.38826017697249815 0.02990392513807233 -0.3988246949271894 0.04932425076724778 Q -0.4093892128818807 0.06874457639642326 -0.4197222288018604 0.08356428681152533 Q -0.4300552447218401 0.09838399722662744 -0.44448545446547805 0.1148113494934421 Q -0.4589156642091161 0.13123870176025682 -0.4788927009409668 0.1440961659267425 Q -0.49886973767281745 0.15695363009322813 -0.5246177520827559 0.16400152955903888 Q -0.5503657664926942 0.17104942902484965 -0.5836136624458146 0.1675107665518655 Q -0.6168615583989351 0.16397210407888135 -0.6577544822415334 0.1470670350025648 Q -0.6986474060841317 0.13016196592624824 -0.7491145280382632 0.09497385765820926 L -1.222944728607608 -0.23540338108060122 Z M -0.5075903259950862 -1.0330616484475097 L -0.25416416993233754 -1.2099991669812717 L -0.1971416521110304 -1.128326282562945 L -0.3468752735446292 -1.0237849998905486 L -0.20403945684517846 -0.8192024315681716 L -0.08833620391921576 -0.8999843318150235 L -0.031313686097908605 -0.8183114473966968 L -0.1470169390238713 -0.7375295471498451 L 0.016503516493112408 -0.5033205403619967 L 0.1702407106923154 -0.6106570444962219 L 0.22726322851362252 -0.5289841600778954 L -0.030166500314730393 -0.3492514200823047 L -0.5075903259950862 -1.0330616484475097 Z M -0.006770046276734498 -1.3412133646357125 L 0.10928883412354318 -1.3914497357720312 L 0.4010089197954479 -0.717501642636828 L 0.5591895560166757 -0.7859705191276407 L 0.5987579718923863 -0.6945573469204722 L 0.3245184552708807 -0.5758520992933408 L -0.006770046276734498 -1.3412133646357125 Z M 0.5204904583506934 -1.5352188043899146 L 0.8229422982159489 -1.598894440262263 L 0.8434633562222031 -1.5014218094052136 L 0.6647635329842798 -1.4637998697270809 L 0.7161667714215151 -1.2196404855704528 L 0.8542529984690013 -1.2487119844126464 L 0.8747740564752557 -1.1512393535555974 L 0.7366878294277694 -1.1221678547134037 L 0.7955349810633519 -0.842650751520395 L 0.9790128744413267 -0.881278625414521 L 0.9995339324475812 -0.7838059945574718 L 0.6923040224422743 -0.7191244244691308 L 0.5204904583506934 -1.5352188043899146 Z M 1.286962495927268 -0.7819207977999428 Q 1.2674328354710616 -0.7821699744998465 1.2447700964044555 -0.7856332122376182 Q 1.2221073573378496 -0.7890964499753897 1.1995349448249586 -0.7996391896285363 Q 1.1769625323120676 -0.8101819292816829 1.1564521006510053 -0.8292439777144295 Q 1.1359416689899429 -0.8483060261471761 1.1204662731716233 -0.8792676974343734 Q 1.1049908773533035 -0.9102293687215708 1.09604638899943 -0.9555131821677519 Q 1.0871019006455565 -1.000796995613933 1.0878992660852482 -1.0632919090737945 L 1.0916680636712912 -1.3586780234739215 Q 1.0924716585284804 -1.4216611784451882 1.1028064804576134 -1.4662106883888093 Q 1.1131413023867465 -1.5107601983324304 1.1296426108567166 -1.5410697220178329 Q 1.1461439193266865 -1.5713792457032354 1.1673687927645198 -1.58917631667283 Q 1.1885936662023528 -1.6069733876424248 1.2111742493681936 -1.6162075439099364 Q 1.2337548325340344 -1.625441700177448 1.2560071978079552 -1.6280877107497387 Q 1.2782595630818758 -1.6307337213220292 1.2973009820266774 -1.630490774039623 Q 1.3471016161900047 -1.6298553734548689 1.3803686213225772 -1.6155137752812365 Q 1.41363562645515 -1.6011721771076042 1.4335892930123335 -1.5767457014668982 Q 1.4535429595695173 -1.5523192258261922 1.4616760444642667 -1.5199862712672434 Q 1.469809129359016 -1.4876533167082946 1.4693481524641943 -1.451523444864312 Q 1.4690055345018267 -1.4246701617370277 1.4660305382754604 -1.4020011932529242 Q 1.4630555420490938 -1.3793322247688204 1.4573360380437719 -1.3520592237226046 L 1.3548053206486865 -1.3533674013970989 L 1.3553472799709771 -1.3958444128893484 Q 1.3562256278381375 -1.4646864659974772 1.3415262002094086 -1.4990564837382645 Q 1.32682677258068 -1.5334265014790516 1.2975322818963697 -1.533800266528907 Q 1.2799555874857838 -1.5340245255588203 1.2666858548328779 -1.527357338671583 Q 1.253416122179972 -1.5206901517843456 1.2444190894885097 -1.504446190667229 Q 1.2354220567970473 -1.4882022295501125 1.2304411444763306 -1.4614081258890554 Q 1.225460232155614 -1.4346140222279984 1.2249494199208115 -1.3945782182927746 L 1.22009047427269 -1.013749839396743 Q 1.2195921208728826 -0.9746905184843296 1.2229237730810492 -0.9487669977486237 Q 1.2262554252892155 -0.9228434770129179 1.2343561896231803 -0.9071138485504935 Q 1.2424569539571453 -0.8913842200880691 1.25579949838457 -0.8846216507029154 Q 1.2691420428119946 -0.8778590813177619 1.2881834617567962 -0.8776161340353559 Q 1.3003894995419254 -0.8774603985979161 1.3116906926054666 -0.8829318993766309 Q 1.3229918856690077 -0.8884034001553457 1.3316887328472893 -0.9002563023785645 Q 1.3403855800255706 -0.9121092046017832 1.3457457190514845 -0.9303528523957524 Q 1.3511058580773985 -0.9485965001897214 1.3514235583697758 -0.973496817271385 L 1.3524638710918735 -1.055033149676048 L 1.4681771092948983 -1.0535567777291188 L 1.467192861330279 -0.9764146189271024 Q 1.465909601325775 -0.8758368675776377 1.4194044163389252 -0.8285747647047048 Q 1.3728992313520754 -0.7813126618317718 1.286962495927268 -0.7819207977999428 Z M 1.8271062192758891 -1.461424774718205 L 1.6965934282327133 -1.4929971743526322 L 1.720014408325161 -1.5898139357082972 L 2.1034847180083833 -1.4970484851460533 L 2.0800637379159355 -1.4002317237903883 L 1.9500255388401893 -1.4316893146988718 L 1.777353215021359 -0.7179029956845572 L 1.6544338954570588 -0.7476384557038904 L 1.8271062192758891 -1.461424774718205 Z M 2.384779699034721 -1.3907183039674584 L 2.506770344330574 -1.3279166170097039 Q 2.5276086040252395 -1.31718892671087 2.551677128426238 -1.302601526065837 Q 2.575745652827236 -1.288014125420804 2.5972440014274722 -1.2684342250572573 Q 2.6187423500277083 -1.2488543246937105 2.6350400269943908 -1.2234393771619976 Q 2.6513377039610733 -1.1980244296302847 2.6572854644025647 -1.165306405236253 Q 2.6632332248440562 -1.1325883808422215 2.6558717609484668 -1.0916194137050117 Q 2.6485102970528773 -1.0506504465678024 2.6225850454973627 -1.0002913189723612 L 2.612974822937991 -0.9816237113292234 Q 2.56939358109898 -0.8969682813196456 2.5177043185050554 -0.856302944739191 Q 2.4660150559111313 -0.8156376081587364 2.4066261896016408 -0.8165553627225058 L 2.3729318288148695 -0.45880706036132257 L 2.253980096391155 -0.5200442924838308 L 2.2982448703550222 -0.8481866600406296 L 2.256134220555386 -0.8698655341861892 L 2.113321843452164 -0.5924562020009573 L 2.0030527192345606 -0.6492235631656182 L 2.384779699034721 -1.3907183039674584 Z M 2.314858600013174 -0.9423316725455204 Q 2.34437946791395 -0.9271341112888395 2.368136000416695 -0.9231418706924812 Q 2.3918925329194405 -0.9191496300961229 2.4124163357684796 -0.9280799467730906 Q 2.4329401386175187 -0.9370102634500582 2.451658206503194 -0.9595014763303308 Q 2.4703762743888693 -0.9819926892106033 2.4895967195076127 -1.0193279044968788 L 2.5197683484730824 -1.0779355098881247 Q 2.5345189226339784 -1.1065881169682896 2.540037048009146 -1.1301082992376634 Q 2.545555173384313 -1.153628481507037 2.5401107566752685 -1.1734560903414408 Q 2.5346663399662246 -1.1932836991758444 2.51761461390025 -1.2102998520813686 Q 2.500562887834276 -1.2273160049868928 2.4697396287025835 -1.2431840468872508 L 2.4528085427006676 -1.2519002952550529 L 2.2979275140112585 -0.9510479209133227 L 2.314858600013174 -0.9423316725455204 Z M 2.5946405777764157 -0.26004194973745587 Q 2.5797884008158825 -0.27346560315233215 2.5645286265010308 -0.29153571325373545 Q 2.549268852186179 -0.30960582335513864 2.5391187157122115 -0.3326011264446605 Q 2.5289685792382435 -0.35559642953418225 2.5258159196940855 -0.3837851548153448 Q 2.522663260149928 -0.41197388009650737 2.5311545342221065 -0.4457636249236287 Q 2.5396458082942854 -0.47955336975075 2.562685915651978 -0.5196094535836009 Q 2.5857260230096704 -0.5596655374164518 2.6276340141585526 -0.6060333093908006 L 2.8257147535731915 -0.8251934816133086 Q 2.8679501509029244 -0.871923501806207 2.905333904931025 -0.8983573870960573 Q 2.9427176589591255 -0.9247912723859075 2.975496984692977 -0.9362999758963357 Q 3.0082763104268286 -0.9478086794067639 3.03614813662521 -0.946969694626096 Q 3.0640199628235916 -0.9461307098454284 3.087611173731285 -0.9376427565167401 Q 3.1112023846389785 -0.9291548031880517 3.1301924879959135 -0.9159402019993692 Q 3.1491825913528486 -0.9027256008106865 3.1636725200948326 -0.8896293535766608 Q 3.1774379523997176 -0.8771879187043364 3.1924817605675955 -0.8599711660927587 Q 3.2075255687354733 -0.842754413481181 3.2183130965522926 -0.8208284340284586 Q 3.2291006243691123 -0.7989024545757362 3.233089220384246 -0.7712745226412474 Q 3.2370778163993803 -0.7436465907067586 3.2289313695269013 -0.709874266898487 Q 3.2207849226544223 -0.676101943090215 3.197925939406005 -0.6358821561669388 Q 3.175066956157587 -0.5956623692436627 3.132176746466153 -0.5482078526136651 L 2.9340960070515143 -0.32904768039115695 Q 2.892515422083483 -0.28304215663535776 2.8549505439461074 -0.25677197443593286 Q 2.817385665808732 -0.2305017922365079 2.7842789338940297 -0.21863084050753023 Q 2.7511722019793274 -0.20675988877855245 2.7224470182911205 -0.2073829074122464 Q 2.6937218346029135 -0.2080059260459404 2.6698380595520685 -0.2154419767566789 Q 2.645954284501223 -0.22287802746741736 2.626999023181987 -0.2354029742566997 Q 2.608043761862751 -0.24792792104598207 2.5946405777764157 -0.26004194973745587 Z M 2.658484783042291 -0.3306803523546279 Q 2.672250215347176 -0.3182389174823035 2.6868305699268977 -0.3136170681692049 Q 2.70141092450662 -0.3089952188561064 2.7185895143370082 -0.31453014750395675 Q 2.7357681041673962 -0.32006507615180707 2.756398286738276 -0.33597274890758 Q 2.777028469309156 -0.35188042166335287 2.8032209637772074 -0.3808602791473209 L 3.0576155662981566 -0.6623271449603602 Q 3.0844628731279093 -0.6920314988814273 3.0990288549984735 -0.7150655096197365 Q 3.1135948368690376 -0.7380995203580456 3.1178613518843665 -0.7562918500251941 Q 3.1221278668996955 -0.7744841796923425 3.116387479202941 -0.7888867309062803 Q 3.1106470915061863 -0.803289282120218 3.0968816592013013 -0.8157307169925424 Q 3.082753978677867 -0.8284995580457175 3.06766509380802 -0.8329228622306917 Q 3.0525762089381723 -0.837346166415666 3.034725385727233 -0.8314315685304166 Q 3.0168745625162945 -0.8255169706451672 2.9954258644932876 -0.8087036773430203 Q 2.973977166470281 -0.7918903840408733 2.947129859640529 -0.7621860301198061 L 2.6927352571195793 -0.48071916430676687 Q 2.666542762651528 -0.45173930682279884 2.6527952962330903 -0.4296109166308637 Q 2.639047829814653 -0.4074825264389286 2.635453548179875 -0.3896698660091792 Q 2.6318592665450966 -0.3718572055794298 2.6381081845319767 -0.35765319949361635 Q 2.644357102518857 -0.3434491934078029 2.658484783042291 -0.3306803523546279 Z M 3.543926192253088 -0.4703466933941293 L 3.5989891631346604 -0.3838462391983623 L 3.2367322621785144 0.08638311201442361 L 3.2383054899179875 0.08885455356287408 Q 3.2539951530379208 0.07713064785882551 3.2728675692340388 0.062223086696083174 Q 3.2917399854301563 0.047315525533340785 3.316435349733533 0.029280108881524824 Q 3.34113071403691 0.011244692229708836 3.3728847472217716 -0.010705193780917499 Q 3.404638780406633 -0.03265507979154386 3.445417565956066 -0.05861333749285663 L 3.702035580070175 -0.22196681777485533 L 3.7628670526631502 -0.1264044112347698 L 3.059330025204245 0.32144108526868725 L 3.0037426450761813 0.2341168172234367 L 3.354166747536566 -0.2274225814424982 L 3.3520691105506013 -0.23071783684043218 Q 3.3343199128069596 -0.21768290802015566 3.314005822374246 -0.2018576306760538 Q 3.2936917319415318 -0.18603235333195192 3.26549515877785 -0.16576819738254844 Q 3.2372985856141683 -0.14550404143314502 3.19915999509581 -0.11948998376221209 Q 3.1610214045774514 -0.0934759260912792 3.107473504361024 -0.059389325069353294 L 2.9006962281406667 0.07223739579992974 L 2.8403891647941824 -0.022501196890672287 L 3.543926192253088 -0.4703466933941293 Z M 3.8983288229897806 0.17862416078729426 L 3.942547942413543 0.2971063374304457 L 3.161206020766815 0.588713503360123 L 3.1169869013430525 0.4702313267169715 L 3.8983288229897806 0.17862416078729426 Z M 3.234306596745546 0.9178763212108909 Q 3.23099215895625 0.8986283543389487 3.230266919642884 0.8757139967095553 Q 3.2295416803295174 0.8527996390801618 3.2357938290072306 0.8286837977521484 Q 3.2420459776849433 0.804567956424135 3.2570505556480605 0.7809268452504989 Q 3.2720551336111776 0.7572857340768626 3.2996777007306832 0.7364265214752681 Q 3.3273002678501893 0.7155673088736735 3.3701954028192738 0.6985192876358542 Q 3.4130905377883582 0.6814712663980349 3.4746840317785734 0.6708650654722871 L 3.7658095307166994 0.6207341939091819 Q 3.827884223878713 0.6100451320387017 3.873571166992929 0.6120873390316578 Q 3.919258110107145 0.6141295460246138 3.952067469520724 0.6248303096481909 Q 3.9848768289343033 0.6355310732717678 4.006244218914343 0.6531567827040068 Q 4.027611608894383 0.6707824921362456 4.040806596202145 0.6913018656166973 Q 4.054001583509908 0.711821239097149 4.060658951526024 0.7332186357455888 Q 4.067316319542139 0.7546160323940286 4.070547896386703 0.7733828000941724 Q 4.078999712749408 0.822465115617625 4.07096151106732 0.8577887958106996 Q 4.062923309385231 0.8931124760037742 4.042542679587597 0.9171838583976684 Q 4.022162049789963 0.9412552407915624 3.9918529709840755 0.9551450486503759 Q 3.961543892178188 0.9690348565091893 3.925935153465095 0.9751665664193874 Q 3.8994691990161745 0.9797239183796695 3.8766377023315135 0.9809303568648344 Q 3.853806205646852 0.9821367953499991 3.8259475816340767 0.9814838173652298 L 3.8085467832402715 0.8804319912875331 L 3.850411111186746 0.8732230890958138 Q 3.918260194410342 0.8615396958885447 3.949375447149537 0.8408222554315211 Q 3.980490699888731 0.8201048149744975 3.9755190432047867 0.7912328646665843 Q 3.97253604919442 0.7739096944818362 3.9635620152814655 0.7620773700695289 Q 3.9545879813685105 0.7502450456572215 3.936976312108076 0.7443593022133831 Q 3.9193646428476407 0.7384735587695447 3.8921115094237626 0.7384595185977407 Q 3.864858375999884 0.7384454784259367 3.8254000439124027 0.7452400758939939 L 3.450064689909529 0.8098716127852699 Q 3.4115687561656447 0.8165004883638622 3.3866866571458143 0.8245011122231689 Q 3.361804558125984 0.8325017360824756 3.347814820688881 0.843333672234488 Q 3.333825083251778 0.8541656083865004 3.3296075704126387 0.8685172083648481 Q 3.3253900575734994 0.8828688083431959 3.328621634418063 0.9016355760433395 Q 3.3306931580363734 0.9136655553383034 3.3381327502409017 0.9237802354252476 Q 3.3455723424454304 0.9338949155121916 3.358811788687312 0.9402858078727225 Q 3.3720512349291942 0.9466767002332532 3.39096624379133 0.9486220061096728 Q 3.409881252653466 0.9505673119860926 3.4344224104151926 0.94634140380474 L 3.514782672105551 0.9325036260344283 L 3.5344207160071313 1.0465478297506858 L 3.4583912468629596 1.059639859018406 Q 3.359264217472457 1.0767092136332814 3.3043177698313526 1.039596864067993 Q 3.249371322190248 1.0024845145027044 3.234306596745546 0.9178763212108909 Z" fill="#f2f0f0" fill-rule="nonzero"></path></g><g><path d=" M 0.6252909613013352 3.3654808170563277 L 0.5652273093164186 3.516699911340921 Q 0.5018970455067984 3.674864696315344 0.4326960588767265 3.867092029157586 Q 0.42775319205944234 3.8806491809644412 0.4179176426038955 3.883993604662716 Q 0.40808209314834865 3.8873380283609915 0.3988767352926944 3.8836521399911192 Q 0.38967137743704017 3.8799662516212474 0.3849879074773151 3.8698372937028918 Q 0.38030443751759 3.8597083357845365 0.3856657296919494 3.84631872435813 Q 0.4673352812500061 3.6605404193810243 0.5175973953846253 3.5350128122584663 L 0.6043833124570678 3.3182684772935165 Q 0.6141006545230941 3.2939998065831553 0.6222267885689043 3.2724925729918715 Q 0.5987804983751079 3.3043728399733907 0.5613501191364487 3.3554147752199115 Q 0.4777815168162628 3.4671207265494957 0.44520853182847697 3.509669137760246 Q 0.41263554684069115 3.5522175489709964 0.3806489531844759 3.5933014714319835 Q 0.3146661324947538 3.6780632130925865 0.26183140132383736 3.7409009981810173 Q 0.2559700415724116 3.748264263039829 0.24697219401910842 3.7495165599527276 Q 0.2379743464658053 3.7507688568656268 0.23127954075260215 3.7480882107784472 Q 0.2183083546832712 3.7428944589845368 0.2204072909733933 3.7243145005165927 Q 0.220995810275197 3.716781992901146 0.22355867456690287 3.68794933640272 Q 0.22612153885860875 3.6591166799042942 0.22977724596965104 3.616641824626649 Q 0.23343295308069334 3.574166969349004 0.23826399641915658 3.5214815139330122 Q 0.2430950397576198 3.4687960585170208 0.24801070447440066 3.413474182876218 Q 0.2529263691911815 3.3581523072354154 0.25813459118267773 3.303918592879436 Q 0.26334281317417396 3.249684878523457 0.26804586046004414 3.2039880628775235 Q 0.27199284806366186 3.166242180204112 0.27518292479693385 3.1388744380494957 L 0.23446976115979906 3.242979007365041 Q 0.15857396881652408 3.4325256941201037 0.11295705709591414 3.5579712334286238 Q 0.0673401453753042 3.683416772737144 0.0597166324708403 3.703668730257202 Q 0.052093119566376425 3.7239206877772597 0.04794883591752683 3.727601894612619 Q 0.043804552268677216 3.731283101447978 0.03886594139185938 3.7327042155234658 Q 0.017018519911118732 3.739978177469447 0.006982269657966958 3.718966755514763 Q 0.002298799698241913 3.708837797596408 0.010549099450225308 3.6912643581932962 Q 0.018799399202208703 3.673690918790185 0.030442604455302225 3.6470375640197323 Q 0.04208580970839573 3.6203842092492797 0.05456714245777955 3.5904251239203147 Q 0.08472270856236452 3.5199629747393266 0.10901606372743047 3.4592912979634236 L 0.2564567056508731 3.0765137384596133 Q 0.26399602277106593 3.0576845973912294 0.2758824523079465 3.0534620762747617 Q 0.2877688818448271 3.049239555158294 0.29948479184293253 3.0539306858108586 Q 0.3216613357679177 3.0628103259746413 0.31930725856070286 3.0929403564364284 Q 0.3191388669921608 3.095785989339777 0.31775304130406246 3.1095536306073095 Q 0.31636721561596404 3.1233212718748415 0.314267002543702 3.1455420416621958 Q 0.31216678947144 3.1677628114495495 0.3094363847992854 3.1970138933050505 Q 0.3067059801271308 3.226264975160552 0.30343000523340125 3.259909948859389 Q 0.3001540303396717 3.293554922558226 0.2965421234969514 3.3304639545174872 Q 0.28394254743956593 3.458934158149064 0.2628562209326749 3.6825646724742773 Q 0.32917071763092143 3.6066749102846174 0.5374224875036379 3.327870129615821 Q 0.5785370527359825 3.2724772516061926 0.6206568602510196 3.2145738214541133 Q 0.6397488029293354 3.1887181986640023 0.6669464511392231 3.1996083233931696 Q 0.6778255104231781 3.203964373284837 0.680038823756401 3.2172310957872097 Q 0.6822521370896237 3.2304978182895825 0.6733733481139343 3.250247154668294 Q 0.6604744411955686 3.277611492070537 0.6252909613013352 3.3654808170563277 Z M 0.7966968053218749 3.738947419822101 L 0.81908891122556 3.5496097491153815 Q 0.8373837297559839 3.388384805636706 0.8397879823465295 3.2752542037037373 Q 0.840070647242467 3.2607706407956574 0.8493674350572349 3.2547945711516535 Q 0.8586642228720027 3.248818501507649 0.8696364759698569 3.2500635655465255 Q 0.8806087290677114 3.2513086295854015 0.8887779767964668 3.2592666379035347 Q 0.8969472245252221 3.267224646221668 0.8933835360257649 3.2906349792649165 Q 0.8898198475263077 3.3140453123081657 0.8846093051640971 3.349969953707353 Q 0.8793987628018864 3.3858945951065396 0.8739293640388435 3.4260991930954843 Q 0.8629905665127573 3.506508389073373 0.8555710012198632 3.5718940605952803 Q 0.8481514359269691 3.6372797321171877 0.8456565461501959 3.661264959576561 Q 0.8431616563734228 3.685250187035934 0.8410685564205269 3.7076933592372234 Q 0.8297899536102509 3.8270747732871677 0.8373779854749921 3.860142388426741 Q 0.8449660173397331 3.893210003566315 0.8578138507581781 3.9119052170765753 Q 0.883509517595068 3.949295644097096 0.9300856123777966 3.954580813894774 Q 0.9780052483561807 3.960018440513539 1.0133692392100997 3.928195848186634 Q 1.0497813810155425 3.895131352544798 1.0626259300314214 3.8299076612420198 Q 1.0766996570140372 3.749854197846667 1.0822389215135266 3.7010388677378456 Q 1.0877781860130162 3.652223537629024 1.0915943682392089 3.616594286473969 Q 1.0954105504654015 3.5809650353189135 1.099545931430831 3.5365265379815534 Q 1.1105990097334217 3.4071400316757146 1.1186537705546373 3.3041765022177696 Q 1.119832129581012 3.289794577190414 1.1286556608603802 3.283991612138657 Q 1.1374791921397482 3.2781886470868997 1.1477796746397748 3.2793574827152323 Q 1.1580801571398012 3.280526318343565 1.1658269672735193 3.288209584188727 Q 1.1735737774072372 3.2958928500338884 1.1714997242504255 3.3101731371805196 Q 1.1621363138755703 3.376699074136633 1.1545436439904293 3.441611489123141 Q 1.1469509741052881 3.506523904109649 1.1392360185682624 3.570515215495538 Q 1.120706152132111 3.7258165092456483 1.1080807649498206 3.7931063312822726 Q 1.0954553777675298 3.860396153318897 1.0814657603922164 3.8937369511825732 Q 1.0674761430169029 3.9270777490462496 1.0456174298559868 3.9518141774641458 Q 0.996710067716897 4.007048703809375 0.9255023843471486 3.998968492291772 Q 0.8077186061946716 3.98560311097649 0.7933968586008922 3.851976383874345 Q 0.7886165938042711 3.8101551031918497 0.7943083151248473 3.7599962318873725 L 0.7966968053218749 3.738947419822101 Z M 1.3728730440167816 3.799431587043091 Q 1.388561967915885 3.7977835955138217 1.3938675703839478 3.809462710414175 Q 1.3991731728520107 3.8211418253145286 1.4020924721324306 3.8489336333643687 Q 1.4050117714128505 3.8767254414142087 1.4151747213804304 3.9001307566871803 Q 1.4253376713480104 3.923536071960152 1.4405274828781836 3.938708941628402 Q 1.471355360907076 3.969007595492637 1.5197668975100236 3.9639223644880346 Q 1.5681784341129712 3.9588371334834322 1.5931234570548485 3.9201873932590905 Q 1.6180684799967258 3.881537653034749 1.611052744629265 3.814747662721423 Q 1.6016827356485626 3.725544923980807 1.518629397763271 3.6640228486689637 Q 1.4950413984934192 3.64655973272166 1.4703798472744678 3.629662585423565 Q 1.4457182960555164 3.6127654381254692 1.4220361258411351 3.594405812241074 Q 1.3983539556267537 3.576046186356679 1.378683480375182 3.5527331560641775 Q 1.3356868048973047 3.501505889131024 1.3282943857517253 3.4311298590693315 Q 1.3207136247170868 3.3589608091334564 1.3586363849747198 3.310110447382262 Q 1.396157975736072 3.2617554260718773 1.4598101812695772 3.2550692890102706 Q 1.514497287432166 3.2493248613939607 1.553322183704456 3.2824091019780597 Q 1.596746400360836 3.3204486329343252 1.6014248039769783 3.3951885560187836 Q 1.6013532327865512 3.398821681239415 1.6020011295212075 3.402832433220195 Q 1.6026490262558641 3.406843185200975 1.6027055256411205 3.418167273095282 Q 1.6027620250263768 3.4294913609895894 1.5953874748174437 3.4391034141131325 Q 1.5880129246085104 3.448715467236675 1.5783754427847756 3.449727804890369 Q 1.5687379609610406 3.450740142544063 1.5610959697236892 3.442705452741392 Q 1.5534539784863377 3.4346707629387216 1.554188518216592 3.4200911765839312 Q 1.5565785933323544 3.386756452740644 1.554812888122423 3.3699468914201764 Q 1.5530471829124917 3.3531373300997083 1.5453948347801187 3.338532315044726 Q 1.5377424866477458 3.323927299989744 1.5253118901552147 3.313449807614174 Q 1.498516420879175 3.291338399846455 1.4599664935842354 3.2953877504612312 Q 1.4173822715723834 3.2998608703263907 1.393547529156849 3.3318225716177587 Q 1.3673528552358938 3.3672045705225364 1.3722968298237017 3.4142713422198465 Q 1.3772408044115096 3.4613381139171566 1.3905876816491451 3.48916759352627 Q 1.4039345588867809 3.5169970731353835 1.42319256476502 3.5385406262898345 Q 1.4424505706432595 3.560084179444285 1.4659914844408464 3.5770990404230427 Q 1.4895323982384334 3.5941139014018004 1.513698609016574 3.610609879203615 Q 1.537864819794715 3.6271058570054295 1.561476361800699 3.644793100437006 Q 1.5850879038066832 3.6624803438685825 1.604664208113725 3.6848968642239925 Q 1.6476137981193375 3.7356758761886 1.6551003882094466 3.806948416187384 Q 1.663858286050706 3.8903238403369045 1.6260522964917052 3.944600347182914 Q 1.5886474764289853 3.9983815135881127 1.5173749364302014 4.005868103678222 Q 1.4510332010854214 4.012836753573417 1.4039777451724698 3.966114636079825 Q 1.3594931624081008 3.9222948760047287 1.3531837091246126 3.8622287102195902 Q 1.3468742558411246 3.8021625444344513 1.3728730440167816 3.799431587043091 Z M 1.8200026909199878 3.335768439970527 Q 1.826123184009552 3.3595590962863446 1.870781485773913 3.5267752958164693 Q 1.9154397875382738 3.693991495346594 1.9699755019717387 3.8772304770643036 Q 1.9741324859717118 3.8910488626976356 1.9676180985736824 3.900719467584139 Q 1.961103711175653 3.910390072470642 1.9517413458373778 3.9128904721788027 Q 1.9423789804991025 3.9153908718869634 1.9334494445128723 3.9107779004967553 Q 1.9245199085266418 3.9061649291065472 1.919343347868604 3.8832884734318203 Q 1.9141667872105663 3.8604120177570933 1.9043383201187407 3.820117207964645 Q 1.8945098530269153 3.7798223981721963 1.8832858140049538 3.7343020821444317 Q 1.8610703312827197 3.644132367794788 1.8403111988219425 3.5664029625444567 Q 1.8195520663611655 3.4886735572941254 1.8077627196806474 3.445403550256716 Q 1.795973373000129 3.4021335432193065 1.785333451783289 3.3657875948937814 Q 1.7623957103073478 3.285141141228911 1.7460029991300428 3.237735589838992 Q 1.7409750974241835 3.224149799527349 1.745486637048765 3.215713871224484 Q 1.7499981766733461 3.207277942921619 1.760013730291036 3.2046030967221912 Q 1.7700292839087257 3.2019282505227635 1.7805410747106791 3.2063519095264867 Q 1.7910528655126323 3.2107755685302095 1.7947026906844714 3.227061992580369 Q 1.7983525158563103 3.2433484166305284 1.8018860433673047 3.2591993818277443 Q 1.805419570878299 3.2750503470249606 1.8096508843543613 3.293514065339835 Q 1.8138821978304238 3.3119777836547097 1.8200026909199878 3.335768439970527 Z M 2.40409026459975 3.5449142621572434 Q 2.3979685102564203 3.531358673162552 2.401314412167354 3.5206984506453782 Q 2.404660314078288 3.510038228128204 2.4134919856960417 3.5060498124196715 Q 2.4223236573137954 3.5020613967111385 2.4319768212754322 3.505367538612738 Q 2.4416299852370695 3.5086736805143373 2.446744681024862 3.522189509499695 Q 2.4801094836735187 3.607021222237907 2.4622601646963993 3.6759118624299285 Q 2.445126408878738 3.7420065946720475 2.3863855232350746 3.768534196826476 Q 2.275476158733052 3.8186212778173543 2.168079786451664 3.6673231153709183 Q 2.128115875330547 3.6116828084039736 2.090550564587388 3.5285007850274566 Q 2.052985253844229 3.4453187616509395 2.0338516678275487 3.375573164249671 Q 2.014718081810868 3.3058275668484023 2.013963226676314 3.2483059491548043 Q 2.012360821057799 3.1253917530306876 2.0949266812981935 3.088104703848589 Q 2.1590076474549176 3.059165501498304 2.212633252267991 3.0957778006073147 Q 2.269386020436379 3.1349342722794833 2.3244818095263455 3.2569345732317085 Q 2.3306035638696754 3.2704901622264 2.3275028096801167 3.2800505723343503 Q 2.324402055490558 3.2896109824423005 2.3157757715848453 3.2935066442971466 Q 2.2968801020770933 3.3020399988363334 2.2861206550494226 3.2782150242396026 Q 2.217482803321182 3.1262281173294233 2.1558402560560297 3.1189529716897195 Q 2.1339499955602634 3.1164749097973727 2.1109465718116955 3.1268633414102958 Q 2.087943148063128 3.137251773023219 2.0755071344737677 3.1584462918599145 Q 2.0630711208844073 3.17964081069661 2.059195046512829 3.208838862637527 Q 2.0553189721412513 3.238036914578444 2.059055418445921 3.2736881517809424 Q 2.0627918647505905 3.3093393889834415 2.0723586285067905 3.3480449741965157 Q 2.091863171433938 3.426277695470827 2.123677743248515 3.4967256807008154 Q 2.1554923150630914 3.567173665930804 2.179210892441159 3.607648337542136 Q 2.2029294698192263 3.648123009153468 2.224779794792819 3.674604848675991 Q 2.2466301197664116 3.7010866881985134 2.2665525523215284 3.715086283465532 Q 2.286474984876645 3.72908587873255 2.305039281970424 3.7340550608394225 Q 2.3367615679655525 3.742973074158333 2.3724990298606485 3.7268339036168276 Q 2.4123442459965605 3.708839656001586 2.423157213407101 3.6648869196419778 Q 2.4362626179940556 3.613964293412281 2.40409026459975 3.5449142621572434 Z" fill="#f2f0f0" fill-rule="nonzero"></path></g><g clip-path="url(&quot;#SvgjsClipPath1009&quot;)"><g clip-path="url(&quot;#SvgjsClipPath1008&quot;)"><path d=" M 1.2387186234674121 2.4774372469348243 C 1.922844028539857 2.4774372469348243 2.4774372469348243 1.922844028539857 2.4774372469348243 1.2387186234674121 C 2.4774372469348243 0.5545932183949678 1.922844028539857 0 1.2387186234674121 0 C 0.5545932183949679 0 1.6606839991613595e-16 0.5545932183949677 0 1.2387186234674121 C 1.6606839991613595e-16 1.922844028539857 0.5545932183949679 2.4774372469348243 1.2387186234674121 2.4774372469348243 Z M 1.0684064987653927 0.533116449080975 C 0.9995114266808894 0.6020031554346185 0.9788980502811917 0.7056089390276891 1.0161787983251709 0.7956203554983979 C 1.0534595463691505 0.8856317719691066 1.1412921934302707 0.9443215989476087 1.2387186234674121 0.9443215989476088 C 1.336145053504554 0.9443215989476088 1.4239777005656742 0.8856317719691066 1.4612584486096534 0.7956203554983979 C 1.4985391966536328 0.7056089390276892 1.4779258202539352 0.6020031554346185 1.4090307481694317 0.5331164490809749 C 1.314966613678641 0.43906373652805153 1.1624706332561836 0.43906373652805153 1.0684064987653927 0.5331164490809749 Z M 0.533116449080975 1.4090307481694317 C 0.6020031554346186 1.4779258202539352 0.7056089390276893 1.4985391966536328 0.7956203554983979 1.4612584486096534 C 0.8856317719691066 1.4239777005656742 0.9443215989476088 1.336145053504554 0.9443215989476088 1.2387186234674121 C 0.9443215989476088 1.1412921934302707 0.8856317719691066 1.0534595463691505 0.7956203554983979 1.016178798325171 C 0.7056089390276893 0.9788980502811917 0.6020031554346186 0.9995114266808894 0.533116449080975 1.0684064987653927 C 0.43906373652805153 1.1624706332561834 0.43906373652805153 1.314966613678641 0.5331164490809751 1.4090307481694317 Z M 1.9443207978538495 1.4090307481694317 C 1.875434091500206 1.4779258202539352 1.7718283079071349 1.4985391966536328 1.6818168914364264 1.4612584486096534 C 1.5918054749657176 1.4239777005656742 1.5331156479872157 1.336145053504554 1.5331156479872157 1.2387186234674121 C 1.5331156479872157 1.1412921934302707 1.5918054749657176 1.0534595463691505 1.6818168914364264 1.016178798325171 C 1.7718283079071349 0.9788980502811917 1.875434091500206 0.9995114266808894 1.9443207978538495 1.0684064987653927 C 2.038373510406773 1.1624706332561836 2.038373510406773 1.314966613678641 1.9443207978538495 1.4090307481694317 Z M 1.0684064987653927 1.6036731764003112 C 0.9743541512986269 1.697732355314834 0.9743578432732527 1.8502263083768524 1.0684147450936545 1.9442809330480018 C 1.1624716469140566 2.038335557719151 1.3149656000207677 2.0383355577191513 1.4090225018411697 1.944280933048002 C 1.5030794036615716 1.8502263083768526 1.5030830956361976 1.6977323553148345 1.4090307481694317 1.6036731764003114 C 1.3638775183014495 1.5584727904316789 1.302608286631528 1.533075510127801 1.2387186234674121 1.533075510127801 C 1.1748289603032966 1.533075510127801 1.113559728633375 1.5584727904316789 1.0684064987653927 1.6036731764003112 Z" fill="#f2f0f0" transform="matrix(1,0,0,1,0,0)" fill-rule="evenodd"></path></g></g><g transform="matrix(-0.596929630577115,-0.8022935972192904,0.8022935972192904,-0.596929630577115,-3.390269293044491,3.1114243060887747)"><g clip-path="url(&quot;#SvgjsClipPath1010&quot;)"><path d=" M -1.102370940105852 2.5411979730673213 L -0.9517019428101788 2.62526430457273 C -0.9258355679228591 2.6397045449573455 -0.9014774722197341 2.6397045449573455 -0.8756110973324144 2.62526430457273 L -0.7251584093441331 2.5411979730673213 C -0.70424850962959 2.5295584722409994 -0.6939014691773664 2.517487333794485 -0.6939014691773664 2.487096121354581 L -0.6939014691773664 2.314870258411372 C -0.6939014691773664 2.2857717515942144 -0.704464328439686 2.273916431957796 -0.7238634964835562 2.2629234065671713 L -0.8734553617179313 2.179074120115098 C -0.8999691930355393 2.1642012611156987 -0.9273438471070539 2.1642012611156987 -0.9540710447482799 2.179074120115098 L -1.1036641362258939 2.2629234065671713 C -1.1228482212056115 2.273916431957796 -1.1334100994733398 2.2857717515942144 -1.1334100994733398 2.314870258411372 L -1.1334100994733398 2.487096121354581 C -1.1334100994733398 2.517487333794485 -1.1230637947670599 2.5295584722409994 -1.102370940105852 2.5411979730673213 Z" fill="#999999" transform="matrix(1,0,0,1,0,0)" fill-rule="nonzero"></path></g></g><g transform="matrix(0.596929630577115,-0.8022935972192904,-0.8022935972192904,-0.596929630577115,3.2982023700300447,6.564924748989389)"><g clip-path="url(&quot;#SvgjsClipPath1011&quot;)"><path d=" M 3.202163528161469 2.5411979730673213 L 3.352832525457142 2.62526430457273 C 3.378698900344462 2.6397045449573455 3.403056996047587 2.6397045449573455 3.4289233709349065 2.62526430457273 L 3.579376058923188 2.5411979730673213 C 3.600285958637731 2.5295584722409994 3.6106329990899546 2.517487333794485 3.6106329990899546 2.487096121354581 L 3.6106329990899546 2.314870258411372 C 3.6106329990899546 2.2857717515942144 3.600070139827635 2.273916431957796 3.580670971783765 2.2629234065671713 L 3.4310791065493897 2.179074120115098 C 3.4045652752317817 2.1642012611156987 3.3771906211602674 2.1642012611156987 3.350463423519041 2.179074120115098 L 3.200870332041427 2.2629234065671713 C 3.1816862470617093 2.273916431957796 3.171124368793981 2.2857717515942144 3.171124368793981 2.314870258411372 L 3.171124368793981 2.487096121354581 C 3.171124368793981 2.517487333794485 3.181470673500261 2.5295584722409994 3.202163528161469 2.5411979730673213 Z" fill="#999999" transform="matrix(1,0,0,1,0,0)" fill-rule="nonzero"></path></g></g></g><defs><clipPath id="SvgjsClipPath1009"><path d=" M 0 0 h 2.4774372469348243 v 2.4774372469348243 h -2.4774372469348243 Z"></path></clipPath><clipPath id="SvgjsClipPath1008"><path d=" M 0 0 L 2.4774372469348243 0 L 2.4774372469348243 2.4774372469348243 L 0 2.4774372469348243 Z"></path></clipPath><clipPath id="SvgjsClipPath1010"><path d=" M -1.2568967176374024 2.0517331742016363 h 0.6866962139423077 v 0.7112210787259616 h -0.6866962139423077 Z"></path></clipPath><clipPath id="SvgjsClipPath1011"><path d=" M 3.0476377506299186 2.0517331742016363 h 0.6866962139423077 v 0.7112210787259616 h -0.6866962139423077 Z"></path></clipPath></defs></svg>